<svg width="107" height="50" viewBox="0 0 107 50" fill="none" xmlns="http://www.w3.org/2000/svg">
<path d="M24.7 10.5C24.7 10.1667 24.8667 10 25.2 10H29C29.3333 10 29.5 10.1667 29.5 10.5V44.5C29.5 44.8333 29.3333 45 29 45H25.35C25.1167 45 24.9167 44.8833 24.75 44.65L9.1 19.1C9.06667 19 9.01667 18.9667 8.95 19C8.88333 19 8.85 19.05 8.85 19.15L8.9 44.5C8.9 44.8333 8.73333 45 8.4 45H4.6C4.26667 45 4.1 44.8333 4.1 44.5V10.5C4.1 10.1667 4.26667 10 4.6 10H8.3C8.53333 10 8.73333 10.1167 8.9 10.35L24.5 35.9C24.5333 36 24.5833 36.05 24.65 36.05C24.7167 36.0167 24.75 35.95 24.75 35.85L24.7 10.5ZM47.5426 45.4C45.0759 45.4 42.9259 44.7833 41.0926 43.55C39.2592 42.2833 37.9759 40.5333 37.2426 38.3C36.6426 36.5 36.3426 34.4667 36.3426 32.2C36.3426 29.8333 36.6259 27.8333 37.1926 26.2C37.9259 24 39.2092 22.2833 41.0426 21.05C42.8759 19.7833 45.0592 19.15 47.5926 19.15C49.9926 19.15 52.0759 19.7833 53.8426 21.05C55.6426 22.2833 56.9259 23.9833 57.6926 26.15C58.2926 27.85 58.5926 29.85 58.5926 32.15C58.5926 34.4833 58.2926 36.5333 57.6926 38.3C56.9592 40.5333 55.6926 42.2833 53.8926 43.55C52.0926 44.7833 49.9759 45.4 47.5426 45.4ZM47.5426 41.25C48.8759 41.25 50.0426 40.8833 51.0426 40.15C52.0426 39.3833 52.7592 38.3167 53.1926 36.95C53.5592 35.6833 53.7426 34.1167 53.7426 32.25C53.7426 30.3833 53.5759 28.8333 53.2426 27.6C52.8092 26.2333 52.0926 25.1833 51.0926 24.45C50.0926 23.6833 48.8759 23.3 47.4426 23.3C46.0759 23.3 44.8926 23.6833 43.8926 24.45C42.8926 25.1833 42.1759 26.2333 41.7426 27.6C41.3759 28.7667 41.1926 30.3167 41.1926 32.25C41.1926 34.1833 41.3759 35.75 41.7426 36.95C42.1426 38.3167 42.8426 39.3833 43.8426 40.15C44.8759 40.8833 46.1092 41.25 47.5426 41.25ZM76.9875 23C76.9875 23.3333 76.8208 23.5 76.4875 23.5H71.0875C70.9542 23.5 70.8875 23.5667 70.8875 23.7V36.95C70.8875 38.35 71.2042 39.3667 71.8375 40C72.4708 40.6 73.4542 40.9 74.7875 40.9H76.2375C76.5708 40.9 76.7375 41.0667 76.7375 41.4V44.5C76.7375 44.8333 76.5708 45 76.2375 45C75.1708 45.0667 74.4042 45.1 73.9375 45.1C71.4042 45.1 69.4875 44.65 68.1875 43.75C66.9208 42.8167 66.2875 41.1167 66.2875 38.65V23.7C66.2875 23.5667 66.2208 23.5 66.0875 23.5H63.0375C62.7042 23.5 62.5375 23.3333 62.5375 23V20.05C62.5375 19.7167 62.7042 19.55 63.0375 19.55H66.0875C66.2208 19.55 66.2875 19.4833 66.2875 19.35V13.45C66.2875 13.1167 66.4542 12.95 66.7875 12.95H70.3875C70.7208 12.95 70.8875 13.1167 70.8875 13.45V19.35C70.8875 19.4833 70.9542 19.55 71.0875 19.55H76.4875C76.8208 19.55 76.9875 19.7167 76.9875 20.05V23Z" fill="#171717"/>
<path d="M102.65 19.3C103.717 19.3 104.683 19.5167 105.55 19.95C105.783 20.05 105.867 20.25 105.8 20.55L105 24.3C104.967 24.6 104.767 24.7 104.4 24.6C103.833 24.3667 103.167 24.25 102.4 24.25L101.7 24.3C100.133 24.3667 98.8333 24.9167 97.8 25.95C96.8 26.95 96.3 28.2667 96.3 29.9V44.5C96.3 44.8333 96.1333 45 95.8 45H92C91.6667 45 91.5 44.8333 91.5 44.5V20.05C91.5 19.7167 91.6667 19.55 92 19.55H95.8C96.1333 19.55 96.3 19.7167 96.3 20.05V22.7C96.3 22.8 96.3167 22.8667 96.35 22.9C96.4167 22.9 96.4667 22.8667 96.5 22.8C98 20.4667 100.05 19.3 102.65 19.3Z" fill="#171717"/>
<rect x="80" y="37" width="8" height="8" rx="1" fill="#BEF264"/>
</svg>
